<?xml version="1.0" encoding="iso-8859-1"?>
<!-- Generator: Adobe Illustrator 18.0.0, SVG Export Plug-In . SVG Version: 6.00 Build 0)  -->
<!DOCTYPE svg PUBLIC "-//W3C//DTD SVG 1.1//EN" "http://www.w3.org/Graphics/SVG/1.1/DTD/svg11.dtd">
<svg xmlns="http://www.w3.org/2000/svg" xmlns:xlink="http://www.w3.org/1999/xlink" version="1.1" id="Capa_1" x="0px" y="0px" viewBox="0 0 297 297" style="enable-background:new 0 0 297 297;" xml:space="preserve" width="512px" height="512px">
<g>
	<path d="M268.338,79.438H248.14L125.76,33.546c-1.394-8.568-8.825-15.138-17.782-15.138c-9.946,0-18.037,8.091-18.037,18.037   s8.091,18.037,18.037,18.037c3.572,0,6.897-1.057,9.701-2.854l74.163,27.811H28.662C12.858,79.438,0,92.297,0,108.102v125.521   c0,14.377,10.643,26.313,24.462,28.352v6.734c0,5.458,4.425,9.884,9.884,9.884c5.458,0,9.883-4.426,9.883-9.884v-6.424h208.543   v6.424c0,5.458,4.425,9.884,9.883,9.884c5.459,0,9.884-4.426,9.884-9.884v-6.734C286.357,259.935,297,247.999,297,233.622V108.102   C297,92.297,284.142,79.438,268.338,79.438z M277.233,233.622c0,4.905-3.99,8.895-8.895,8.895H28.662   c-4.905,0-8.896-3.99-8.896-8.895V108.102c0-4.905,3.99-8.896,8.896-8.896H246.28c0.021,0,0.043,0.003,0.064,0.003   c0.025,0,0.051-0.003,0.076-0.003h21.917c4.905,0,8.895,3.99,8.895,8.896V233.622z" fill="#933EC5"/>
	<path d="M254.501,148.129c5.458,0,9.884-4.425,9.884-9.883c0-5.458-4.426-9.884-9.884-9.884H140.159   c-10.563-10.09-24.855-16.308-40.583-16.308c-15.727,0-30.019,6.218-40.582,16.308H42.499c-5.458,0-9.884,4.426-9.884,9.884   c0,5.458,4.426,9.883,9.884,9.883h2.846c-1.719,4.084-2.977,8.405-3.736,12.895c-5.04,0.45-8.993,4.68-8.993,9.838   s3.953,9.388,8.993,9.838c0.76,4.489,2.018,8.811,3.736,12.895h-2.846c-5.458,0-9.884,4.425-9.884,9.883   c0,5.459,4.426,9.884,9.884,9.884h16.495c10.563,10.091,24.855,16.308,40.582,16.308c15.728,0,30.02-6.217,40.583-16.308h114.342   c5.458,0,9.884-4.425,9.884-9.884c0-5.458-4.426-9.883-9.884-9.883H153.809c1.713-4.07,2.968-8.376,3.728-12.849h96.965   c5.458,0,9.884-4.426,9.884-9.884c0-5.458-4.426-9.884-9.884-9.884h-96.965c-0.76-4.473-2.015-8.778-3.728-12.849H254.501z    M60.536,170.861c0-21.526,17.514-39.04,39.04-39.04c21.527,0,39.04,17.514,39.04,39.04c0,21.526-17.513,39.04-39.04,39.04   C78.05,209.901,60.536,192.388,60.536,170.861z" fill="#933EC5"/>
	<path d="M99.576,152.824c-9.946,0-18.037,8.091-18.037,18.037s8.091,18.037,18.037,18.037s18.038-8.091,18.038-18.037   S109.522,152.824,99.576,152.824z" fill="#933EC5"/>
</g>
<g>
</g>
<g>
</g>
<g>
</g>
<g>
</g>
<g>
</g>
<g>
</g>
<g>
</g>
<g>
</g>
<g>
</g>
<g>
</g>
<g>
</g>
<g>
</g>
<g>
</g>
<g>
</g>
<g>
</g>
</svg>
